<svg xmlns="http://www.w3.org/2000/svg" version="1.1" xmlns:xlink="http://www.w3.org/1999/xlink" xmlns:svgjs="http://svgjs.dev/svgjs" width="100%" height="100%" viewBox="0 0 1000 600"><rect width="1000" height="600" x="0" y="0" fill="#ad0ca5"/><g><rect width="333.3333333333333" height="333.3333333333333" rx="13.333333333333334" ry="13.333333333333334" y="413.24234232639964" fill="#020c1b" transform="matrix(0.3196766546208679,0,0,0.31967665462086786,-216.9840810585142,114.616633586)" x="1388.723876953125"/><path d="M1069.7813000808364 654.9090285979455L1069.7813000808364 504.909035810608L2040.9997407753197 504.909035810608L2040.9997407753197 654.9090285979455L1069.7813000808364 654.9090285979455Z " fill="#ad0ca5" transform="matrix(0.3196766546208679,0,0,0.31967665462086786,-216.9840810585142,114.616633586)"/><path d="M1821.0429447447505 652.8487388248136L1805.3905225976464 652.8487388248136L1844.5358854810802 510.2886526513732L1879.131458380255 510.2886526513732L1918.2768212636886 652.8487388248136L1902.6243991165848 652.8487388248136L1892.3229878314705 616.1642686372682L1831.3443560298645 616.1642686372682L1821.0429447447505 652.8487388248136ZM1867.198990308331 523.8807925414543L1856.468353553004 523.8807925414543L1834.8353898542643 601.9712130888888L1888.8319540070706 601.9712130888888L1867.198990308331 523.8807925414543ZM1953.5305398838568 652.8487388248136L1938.0784229561857 652.8487388248136L1938.0784229561857 549.8346259736724L1953.3016196330766 549.8346259736724L1953.3016196330766 563.8559913339666Q1971.2432442879838 551.4942977918297 1991.0162309491334 547.5740384972167L1991.0162309491334 547.5740384972167L1991.0162309491334 563.2264606443207Q1982.3744914821764 564.8861324624779 1972.9887612001835 568.3771662868778Q1963.6030309181908 571.8682001112775 1958.681245526414 574.5580130579463L1958.681245526414 574.5580130579463L1953.5305398838568 577.247826004615L1953.5305398838568 652.8487388248136ZM2028.73084226519 652.8487388248136L1999.6579704160902 549.8346259736724L2016.1402284722726 549.8346259736724L2040.2626998982482 639.4569041541652L2047.8742982366937 639.4569041541652L2072.7979905404004 549.8346259736724L2088.6793329382845 549.8346259736724L2059.635076120532 652.8487388248136L2028.73084226519 652.8487388248136ZM2123.9044365271056 652.8487388248136L2108.4523195994343 652.8487388248136L2108.4523195994343 549.8346259736724L2123.9044365271056 549.8346259736724L2123.9044365271056 652.8487388248136ZM2123.9044365271056 526.5419904567755L2108.4523195994343 526.5419904567755L2108.4523195994343 508.6289808332159L2123.9044365271056 508.6289808332159L2123.9044365271056 526.5419904567755ZM2217.446974002211 504.9090267580358L2232.6987857104496 504.9090267580358L2232.6987857104496 652.8487388248136L2217.446974002211 652.8487388248136L2217.446974002211 645.8380561446663Q2201.565631604327 654.9090210818363 2186.1135146766555 654.9090210818363L2186.1135146766555 654.9090210818363Q2177.8723856485644 654.9090210818363 2171.691538877496 652.8487388248136Q2165.5106921064275 650.7884565677907 2160.1596812444377 645.4374457058009L2160.1596812444377 645.4374457058009Q2149.028434050245 634.306198511608 2149.028434050245 604.3176456593869Q2149.028434050245 574.3577078385135 2159.0436950218837 561.0517182619078Q2169.0303409621747 547.7743437166496 2192.0940562282913 547.7743437166496L2192.0940562282913 547.7743437166496Q2204.0551393315627 547.7743437166496 2217.446974002211 550.4641566633181L2217.446974002211 550.4641566633181L2217.446974002211 504.9090267580358ZM2172.120764347709 634.306198511608Q2175.411492952676 638.2264578062209 2179.131447027856 639.6572093735979Q2182.822786071689 641.1165759723224 2188.688867497934 641.1165759723224Q2194.583563955527 641.1165759723224 2201.88039694915 639.1421388093422Q2209.20584497412 637.1963166777095 2213.326409488165 635.3363396401196L2213.326409488165 635.3363396401196L2217.446974002211 633.4763626025294L2217.446974002211 563.6270710831863Q2204.2554445509954 561.1661783872978 2192.92389213737 561.1661783872978L2192.92389213737 561.1661783872978Q2177.2714699902663 561.1661783872978 2171.0906232191974 571.1528243275891Q2164.9097764481294 581.1394702678804 2164.9097764481294 602.1715183083215L2164.9097764481294 602.1715183083215Q2164.9097764481294 626.0650694835169 2172.120764347709 634.306198511608L2172.120764347709 634.306198511608ZM2414.604539986756 652.8487388248136L2398.952117839652 652.8487388248136L2398.952117839652 588.3504581674601L2326.441628404988 588.3504581674601L2326.441628404988 652.8487388248136L2310.560286007104 652.8487388248136L2310.560286007104 510.2886526513732L2326.441628404988 510.2886526513732L2326.441628404988 574.1574026190808L2398.952117839652 574.1574026190808L2398.952117839652 510.2886526513732L2414.604539986756 510.2886526513732L2414.604539986756 652.8487388248136ZM2519.6789350949202 580.9391650484474L2519.6789350949202 580.9391650484474L2519.6789350949202 633.6766678219622Q2520.308465784566 641.3168811917553 2531.6400181981917 642.7476327591321L2531.6400181981917 642.7476327591321L2531.010487508546 654.9090210818363Q2514.728534671796 654.9090210818363 2506.4874056437047 646.6678920537452L2506.4874056437047 646.6678920537452Q2487.944865330499 654.9090210818363 2469.402325017294 654.9090210818363L2469.402325017294 654.9090210818363Q2455.2092694689145 654.9090210818363 2447.7693613185543 646.8681972731779Q2440.3580681995413 638.8273734645193 2440.3580681995413 623.8044820070613Q2440.3580681995413 608.7529755182557 2447.9982815693347 601.6564477440659Q2455.60987990778 594.5313049385286 2471.89183274453 592.9002481517189L2471.89183274453 592.9002481517189L2504.226818167249 589.8098247661846L2504.226818167249 580.9391650484474Q2504.226818167249 570.4374485439007 2499.7056432143377 565.9162735909895Q2495.155853230079 561.3664836067306 2487.343949672201 561.3664836067306L2487.343949672201 561.3664836067306Q2470.861691616018 561.3664836067306 2453.148987211892 563.4267658637534L2453.148987211892 563.4267658637534L2446.739220190043 564.0562965533993L2446.1383045317443 552.2955186695608Q2468.8014093589954 547.7743437166496 2486.3138085436894 547.7743437166496Q2503.8262077283835 547.7743437166496 2511.752571411652 555.815167525308Q2519.6789350949202 563.8559913339666 2519.6789350949202 580.9391650484474ZM2456.239410597426 622.9746460979825L2456.239410597426 622.9746460979825Q2456.239410597426 641.9177968500535 2471.89183274453 641.9177968500535L2471.89183274453 641.9177968500535Q2485.8845830734763 641.9177968500535 2499.505337994905 637.1963166777095L2499.505337994905 637.1963166777095L2504.226818167249 635.5366448595523L2504.226818167249 601.5419876186756L2473.75180978212 604.4321057847771Q2464.480539625517 605.2619416938558 2460.3599751114716 609.783116646767Q2456.239410597426 614.3329066310257 2456.239410597426 622.9746460979825ZM2565.6346754390684 569.2070021959564L2565.6346754390684 652.8487388248136L2550.182558511397 652.8487388248136L2550.182558511397 549.8346259736724L2565.434370219635 549.8346259736724L2565.434370219635 557.0456138732523Q2580.8864871473065 547.7743437166496 2595.5087681658993 547.7743437166496L2595.5087681658993 547.7743437166496Q2614.652224137403 547.7743437166496 2622.2924375071957 558.2760602211964L2622.2924375071957 558.2760602211964Q2629.0741999365628 554.1554957071507 2639.8906817859324 550.9792272275739Q2650.707163635302 547.7743437166496 2658.9482926633937 547.7743437166496L2658.9482926633937 547.7743437166496Q2679.551115233622 547.7743437166496 2686.676258039159 558.7911307854522Q2693.7727858133485 569.8079178542548 2693.7727858133485 598.4515642331414L2693.7727858133485 598.4515642331414L2693.7727858133485 652.8487388248136L2678.3206688856776 652.8487388248136L2678.3206688856776 598.8807897033546Q2678.3206688856776 577.4481312240478 2674.200104371632 569.5217675407794Q2670.0795398575865 561.5667888261635 2656.687705186938 561.5667888261635L2656.687705186938 561.5667888261635Q2649.905942757571 561.5667888261635 2642.6949548579914 563.5412259891436Q2635.4839669584117 565.4870481207763 2631.5637076637986 567.3470251583664L2631.5637076637986 567.3470251583664L2627.6434483691855 569.2070021959564Q2630.3332613158545 575.9887646253233 2630.3332613158545 599.28140014222L2630.3332613158545 599.28140014222L2630.3332613158545 652.8487388248136L2614.881144388183 652.8487388248136L2614.881144388183 599.6820105810857Q2614.881144388183 577.4481312240478 2610.84642496818 569.5217675407794Q2606.840320579525 561.5667888261635 2593.2481806894434 561.5667888261635L2593.2481806894434 561.5667888261635Q2586.638108448162 561.5667888261635 2579.741885893405 563.5412259891436Q2572.845663338648 565.4870481207763 2569.125709263468 567.3470251583664L2569.125709263468 567.3470251583664L2565.6346754390684 569.2070021959564ZM2737.8685491199067 569.2070021959564L2737.8685491199067 652.8487388248136L2722.4164321922353 652.8487388248136L2722.4164321922353 549.8346259736724L2737.668243900474 549.8346259736724L2737.668243900474 557.0456138732523Q2753.1203608281453 547.7743437166496 2767.7426418467376 547.7743437166496L2767.7426418467376 547.7743437166496Q2786.914712849589 547.7743437166496 2794.526311188034 558.2760602211964L2794.526311188034 558.2760602211964Q2801.336688648749 554.1554957071507 2812.1531704981185 550.9792272275739Q2822.969652347488 547.7743437166496 2831.2107813755797 547.7743437166496L2831.2107813755797 547.7743437166496Q2851.8136039458077 547.7743437166496 2858.9101317199975 558.7911307854522Q2866.0066594941873 569.8079178542548 2866.0066594941873 598.4515642331414L2866.0066594941873 598.4515642331414L2866.0066594941873 652.8487388248136L2850.554542566516 652.8487388248136L2850.554542566516 598.8807897033546Q2850.554542566516 577.4481312240478 2846.4339780524706 569.5217675407794Q2842.313413538425 561.5667888261635 2828.9215788677766 561.5667888261635L2828.9215788677766 561.5667888261635Q2822.13981643841 561.5667888261635 2814.9288285388297 563.5412259891436Q2807.71784063925 565.4870481207763 2803.797581344637 567.3470251583664L2803.797581344637 567.3470251583664L2799.8773220500243 569.2070021959564Q2802.567134996693 575.9887646253233 2802.567134996693 599.28140014222L2802.567134996693 599.28140014222L2802.567134996693 652.8487388248136L2787.115018069022 652.8487388248136L2787.115018069022 599.6820105810857Q2787.115018069022 577.4481312240478 2783.080298649019 569.5217675407794Q2779.074194260363 561.5667888261635 2765.482054370282 561.5667888261635L2765.482054370282 561.5667888261635Q2758.8719821290006 561.5667888261635 2751.9757595742435 563.5412259891436Q2745.0795370194865 565.4870481207763 2741.3595829443066 567.3470251583664L2741.3595829443066 567.3470251583664L2737.8685491199067 569.2070021959564ZM2967.3897155585187 580.9391650484474L2967.3897155585187 580.9391650484474L2967.3897155585187 633.6766678219622Q2967.9906312168173 641.3168811917553 2979.322183630443 642.7476327591321L2979.322183630443 642.7476327591321L2978.7212679721442 654.9090210818363Q2962.4393151353943 654.9090210818363 2954.198186107303 646.6678920537452L2954.198186107303 646.6678920537452Q2935.655645794098 654.9090210818363 2917.1131054808925 654.9090210818363L2917.1131054808925 654.9090210818363Q2902.891434901165 654.9090210818363 2895.4801417821527 646.8681972731779Q2888.0688486631398 638.8273734645193 2888.0688486631398 623.8044820070613Q2888.0688486631398 608.7529755182557 2895.6804470015854 601.6564477440659Q2903.3206603713784 594.5313049385286 2919.5739981767806 592.9002481517189L2919.5739981767806 592.9002481517189L2951.937598630848 589.8098247661846L2951.937598630848 580.9391650484474Q2951.937598630848 570.4374485439007 2947.387808646589 565.9162735909895Q2942.8666336936776 561.3664836067306 2935.026115104452 561.3664836067306L2935.026115104452 561.3664836067306Q2918.5438570482693 561.3664836067306 2900.8311526441425 563.4267658637534L2900.8311526441425 563.4267658637534L2894.4500006536414 564.0562965533993L2893.8204699639955 552.2955186695608Q2916.4835747912466 547.7743437166496 2933.9959739759406 547.7743437166496Q2951.5083731606346 547.7743437166496 2959.4633518752503 555.815167525308Q2967.3897155585187 563.8559913339666 2967.3897155585187 580.9391650484474ZM2903.9215760296765 622.9746460979825L2903.9215760296765 622.9746460979825Q2903.9215760296765 641.9177968500535 2919.5739981767806 641.9177968500535L2919.5739981767806 641.9177968500535Q2933.5953635370747 641.9177968500535 2947.187503427156 637.1963166777095L2947.187503427156 637.1963166777095L2951.937598630848 635.5366448595523L2951.937598630848 601.5419876186756L2921.4339752143705 604.4321057847771Q2912.162705057768 605.2619416938558 2908.0421405437223 609.783116646767Q2903.9215760296765 614.3329066310257 2903.9215760296765 622.9746460979825ZM3013.316840871319 652.8487388248136L2997.864723943648 652.8487388248136L2997.864723943648 549.8346259736724L3013.1165356518864 549.8346259736724L3013.1165356518864 563.8559913339666Q3031.0581603067935 551.4942977918297 3050.8311469679434 547.5740384972167L3050.8311469679434 547.5740384972167L3050.8311469679434 563.2264606443207Q3042.1607924696386 564.8861324624779 3032.8036772189935 568.3771662868778Q3023.4179469370006 571.8682001112775 3018.467546513876 574.5580130579463L3018.467546513876 574.5580130579463L3013.316840871319 577.247826004615L3013.316840871319 652.8487388248136ZM3085.855945337331 652.8487388248136L3070.40382840966 652.8487388248136L3070.40382840966 504.9090267580358L3085.855945337331 504.9090267580358L3085.855945337331 652.8487388248136ZM3181.0295395992466 633.4763626025294L3181.0295395992466 549.8346259736724L3196.481656526918 549.8346259736724L3196.481656526918 652.8487388248136L3181.0295395992466 652.8487388248136L3181.0295395992466 645.6377509252336Q3165.5774226715753 654.9090210818363 3150.554531214117 654.9090210818363L3150.554531214117 654.9090210818363Q3129.522483173676 654.9090210818363 3122.626260618919 643.9780791070764Q3115.730038064162 633.075752163664 3115.730038064162 603.6022698756985L3115.730038064162 603.6022698756985L3115.730038064162 549.8346259736724L3131.182154991833 549.8346259736724L3131.182154991833 603.4019646562658Q3131.182154991833 625.864764264084 3135.102414286446 633.4763626025294Q3138.994058549711 641.1165759723224 3152.815118690573 641.1165759723224L3152.815118690573 641.1165759723224Q3159.5968811199396 641.1165759723224 3166.6075638000866 639.1421388093422Q3173.6182464802337 637.1963166777095 3177.338200555414 635.3363396401196L3177.338200555414 635.3363396401196L3181.0295395992466 633.4763626025294ZM3241.607560961987 569.2070021959564L3241.607560961987 652.8487388248136L3226.1554440343157 652.8487388248136L3226.1554440343157 549.8346259736724L3241.4072557425543 549.8346259736724L3241.4072557425543 557.0456138732523Q3258.0898190181697 547.7743437166496 3273.341630726408 547.7743437166496L3273.341630726408 547.7743437166496Q3293.9444532966363 547.7743437166496 3301.0409810708256 558.9055909108423Q3308.166123876363 570.036838105035 3308.166123876363 598.4515642331414L3308.166123876363 598.4515642331414L3308.166123876363 652.8487388248136L3292.914312168125 652.8487388248136L3292.914312168125 598.8807897033546Q3292.914312168125 577.4481312240478 3288.679287528689 569.5217675407794Q3284.4728779206007 561.5667888261635 3270.6518177797393 561.5667888261635L3270.6518177797393 561.5667888261635Q3264.0703605698054 561.5667888261635 3256.744912544835 563.5412259891436Q3249.4480795512127 565.4870481207763 3245.5278202565996 567.3470251583664L3245.5278202565996 567.3470251583664L3241.607560961987 569.2070021959564ZM3400.64990519161 504.9090267580358L3415.901716899848 504.9090267580358L3415.901716899848 652.8487388248136L3400.64990519161 652.8487388248136L3400.64990519161 645.8380561446663Q3384.797177825073 654.9090210818363 3369.3450608974017 654.9090210818363L3369.3450608974017 654.9090210818363Q3361.1039318693106 654.9090210818363 3354.923085098242 652.8487388248136Q3348.7422383271737 650.7884565677907 3343.391227465184 645.4374457058009L3343.391227465184 645.4374457058009Q3332.2599802709915 634.306198511608 3332.2599802709915 604.3176456593869Q3332.2599802709915 574.3577078385135 3342.246626211282 561.0517182619078Q3352.2332721515736 547.7743437166496 3375.325602449038 547.7743437166496L3375.325602449038 547.7743437166496Q3387.2580705209616 547.7743437166496 3400.64990519161 550.4641566633181L3400.64990519161 550.4641566633181L3400.64990519161 504.9090267580358ZM3355.3236955371076 634.306198511608Q3358.6430391734225 638.2264578062209 3362.334378217255 639.6572093735979Q3366.054332292435 641.1165759723224 3371.9204137186803 641.1165759723224Q3377.786495144926 641.1165759723224 3385.111943169896 639.1421388093422Q3392.4087761635187 637.1963166777095 3396.529340677564 635.3363396401196L3396.529340677564 635.3363396401196L3400.64990519161 633.4763626025294L3400.64990519161 563.6270710831863Q3387.486990771742 561.1661783872978 3376.1554383581165 561.1661783872978L3376.1554383581165 561.1661783872978Q3360.4744011796647 561.1661783872978 3354.2935544085963 571.1528243275891Q3348.112707637528 581.1394702678804 3348.112707637528 602.1715183083215L3348.112707637528 602.1715183083215Q3348.112707637528 626.0650694835169 3355.3236955371076 634.306198511608L3355.3236955371076 634.306198511608Z " fill="#020c1b" transform="matrix(0.3196766546208679,0,0,0.31967665462086786,-216.9840810585142,114.616633586)"/></g></svg>